<svg width="220" height="53" viewBox="0 0 220 53" fill="none" xmlns="http://www.w3.org/2000/svg">
<path d="M25.9356 0.806237V6.59155C25.9356 6.87994 25.7817 7.14648 25.5307 7.28981C21.6598 9.51217 17.7897 11.7345 13.9187 13.9569C11.626 15.273 9.33422 16.5891 7.04154 17.9052C6.97946 17.9411 6.84393 18.0293 6.74512 18.1998C6.67517 18.3204 6.63669 18.4593 6.63669 18.6035V21.5696C6.63669 21.858 6.79059 22.1245 7.04154 22.2678L24.8067 32.4681C25.3252 32.7662 25.3497 33.5046 24.8522 33.8367L19.9967 37.0719C19.737 37.245 19.3994 37.2528 19.1327 37.0912L0.388234 25.7512C0.146899 25.6053 0 25.344 0 25.0626V15.1105C0 14.8247 0.151271 14.5608 0.396978 14.4166L24.721 0.112349C25.2579 -0.203134 25.9356 0.183136 25.9356 0.806237Z" fill="url(#paint0_linear_707_97)"/>
<path d="M12.9668 51.9782V46.1929C12.9668 45.9045 13.1207 45.6379 13.3716 45.4946L31.8608 34.8792C32.1109 34.7358 32.2657 34.4693 32.2657 34.1809V31.2148C32.2657 30.9265 32.1118 30.6599 31.8608 30.5166L14.0956 20.3163C13.5771 20.0183 13.5526 19.2798 14.0502 18.9477L18.9057 15.7125C19.1654 15.5394 19.5029 15.5316 19.7696 15.6933L38.5141 27.0332C38.7555 27.1791 38.9024 27.4404 38.9024 27.7218V37.6739C38.9024 37.9597 38.7511 38.2236 38.5054 38.3678L14.1813 52.6721C13.6445 52.9875 12.9668 52.6013 12.9668 51.9782Z" fill="url(#paint1_linear_707_97)"/>
<path d="M60.152 29.984C58.7227 30.8587 57.304 31.4987 55.896 31.904C54.5093 32.288 53.08 32.48 51.608 32.48C50.3707 32.48 49.176 32.3627 48.024 32.128C46.872 31.9147 45.7947 31.6053 44.792 31.2V28.48C45.816 28.8853 46.8933 29.216 48.024 29.472C49.176 29.728 50.328 29.856 51.48 29.856C52.5467 29.856 53.56 29.7387 54.52 29.504C55.5013 29.2693 56.4507 28.896 57.368 28.384V24.384L44.792 21.44V14.016C46.2213 13.12 47.64 12.48 49.048 12.096C50.456 11.712 51.896 11.52 53.368 11.52C54.6053 11.52 55.8 11.6373 56.952 11.872C58.104 12.0853 59.1707 12.3947 60.152 12.8V15.52C59.1707 15.1147 58.1147 14.784 56.984 14.528C55.8533 14.272 54.7227 14.144 53.592 14.144C52.504 14.144 51.4693 14.2613 50.488 14.496C49.528 14.7307 48.568 15.104 47.608 15.616V19.392L60.152 22.368V29.984ZM72.8488 25.28V32H70.0008V25.28L62.2248 12H65.4568L71.5048 22.496L77.5208 12H80.6248L72.8488 25.28ZM97.067 32L85.867 16.352V32H83.147V12H85.995L97.195 27.648V12H99.915V32H97.067ZM102.603 14.56V12H119.243V14.56H112.363V32H109.483V14.56H102.603ZM135.913 32V24.704H124.681V32H121.801V14.016C123.23 13.12 124.638 12.48 126.025 12.096C127.412 11.712 128.83 11.52 130.281 11.52C131.732 11.52 133.15 11.712 134.537 12.096C135.945 12.48 137.353 13.12 138.761 14.016V32H135.913ZM124.681 15.648V22.144H135.913V15.648C135.017 15.136 134.11 14.7627 133.193 14.528C132.276 14.2933 131.305 14.176 130.281 14.176C129.278 14.176 128.318 14.2933 127.401 14.528C126.505 14.7627 125.598 15.136 124.681 15.648ZM155.187 32L149.683 23.872L144.147 32H140.947L147.827 21.952L141.139 12H144.339L149.747 20.064L155.155 12H158.259L151.571 21.856L158.451 32H155.187Z" fill="black"/>
<path d="M111.761 41.433C111.365 41.685 110.975 41.865 110.591 41.973C110.207 42.081 109.814 42.135 109.412 42.135C109.082 42.135 108.755 42.102 108.431 42.036C108.107 41.97 107.807 41.88 107.531 41.766V41.163C107.819 41.277 108.119 41.37 108.431 41.442C108.749 41.514 109.07 41.55 109.394 41.55C109.712 41.55 110.015 41.517 110.303 41.451C110.591 41.379 110.873 41.262 111.149 41.1V39.822L107.531 38.94V36.942C107.927 36.69 108.317 36.51 108.701 36.402C109.085 36.294 109.478 36.24 109.88 36.24C110.216 36.24 110.543 36.273 110.861 36.339C111.185 36.399 111.485 36.489 111.761 36.609V37.212C111.485 37.098 111.188 37.005 110.87 36.933C110.558 36.861 110.24 36.825 109.916 36.825C109.598 36.825 109.295 36.861 109.007 36.933C108.719 36.999 108.431 37.113 108.143 37.275V38.481L111.761 39.363V41.433ZM112.39 36.942V36.375H116.98V36.942H115V42H114.379V36.942H112.39ZM122.301 41.433C121.953 41.679 121.59 41.859 121.212 41.973C120.84 42.081 120.444 42.135 120.024 42.135C119.598 42.135 119.199 42.081 118.827 41.973C118.455 41.859 118.095 41.679 117.747 41.433V36.375H118.368V41.1C118.608 41.25 118.86 41.364 119.124 41.442C119.394 41.514 119.694 41.55 120.024 41.55C120.348 41.55 120.645 41.514 120.915 41.442C121.185 41.364 121.437 41.25 121.671 41.1V36.375H122.301V41.433ZM128.325 41.433C127.905 41.709 127.473 41.895 127.029 41.991C126.585 42.087 126.138 42.135 125.688 42.135C125.292 42.135 124.923 42.123 124.581 42.099C124.239 42.075 123.924 42.042 123.636 42V36.375C123.924 36.333 124.239 36.3 124.581 36.276C124.923 36.252 125.292 36.24 125.688 36.24C126.138 36.24 126.585 36.288 127.029 36.384C127.473 36.48 127.905 36.666 128.325 36.942V41.433ZM125.742 41.55C126.096 41.55 126.435 41.52 126.759 41.46C127.083 41.394 127.398 41.274 127.704 41.1V37.275C127.398 37.101 127.083 36.984 126.759 36.924C126.435 36.858 126.096 36.825 125.742 36.825C125.55 36.825 125.364 36.828 125.184 36.834C125.004 36.84 124.833 36.849 124.671 36.861C124.515 36.873 124.377 36.888 124.257 36.906V41.469C124.377 41.487 124.515 41.502 124.671 41.514C124.833 41.52 125.004 41.529 125.184 41.541C125.364 41.547 125.55 41.55 125.742 41.55ZM129.234 36.933V36.375H132.618V36.933H131.241V41.442H132.618V42H129.234V41.442H130.611V36.933H129.234ZM138.265 41.433C137.875 41.691 137.479 41.874 137.077 41.982C136.681 42.084 136.282 42.135 135.88 42.135C135.478 42.135 135.076 42.084 134.674 41.982C134.278 41.874 133.882 41.691 133.486 41.433V36.942C133.882 36.684 134.278 36.504 134.674 36.402C135.076 36.294 135.478 36.24 135.88 36.24C136.282 36.24 136.681 36.294 137.077 36.402C137.479 36.504 137.875 36.684 138.265 36.942V41.433ZM135.88 41.55C136.192 41.55 136.495 41.517 136.789 41.451C137.083 41.379 137.368 41.262 137.644 41.1V37.275C137.368 37.113 137.083 36.999 136.789 36.933C136.495 36.861 136.192 36.825 135.88 36.825C135.574 36.825 135.274 36.861 134.98 36.933C134.686 36.999 134.398 37.113 134.116 37.275V41.1C134.398 41.262 134.686 41.379 134.98 41.451C135.274 41.517 135.574 41.55 135.88 41.55Z" fill="black"/>
<defs>
<linearGradient id="paint0_linear_707_97" x1="0" y1="18.6035" x2="25.9356" y2="18.6035" gradientUnits="userSpaceOnUse">
<stop stop-color="#00458E"/>
<stop offset="0.19" stop-color="#003C80"/>
<stop offset="0.53" stop-color="#00265E"/>
<stop offset="0.99" stop-color="#000328"/>
</linearGradient>
<linearGradient id="paint1_linear_707_97" x1="38.9024" y1="34.1809" x2="12.9668" y2="34.1809" gradientUnits="userSpaceOnUse">
<stop stop-color="#00458E"/>
<stop offset="0.19" stop-color="#003C80"/>
<stop offset="0.53" stop-color="#00265E"/>
<stop offset="0.99" stop-color="#000328"/>
</linearGradient>
</defs>
</svg>
